<?xml version="1.0" encoding="UTF-8" standalone="no"?>
<!DOCTYPE svg PUBLIC "-//W3C//DTD SVG 1.1//EN" "http://www.w3.org/Graphics/SVG/1.1/DTD/svg11.dtd">
<!--Generated by Intaglio, www.PurgatoryDesign.com-->
<svg version="1.1" viewBox="72,98,418,399" width="418" height="399" xmlns="http://www.w3.org/2000/svg" xmlns:xlink="http://www.w3.org/1999/xlink"><g id="ClockBase"><path fill="#fffffe" stroke="#000100" stroke-linejoin="bevel" d="M425.5,298 C425.5,378.91,359.91,444.5,279,444.5 C198.09,444.5,132.5,378.91,132.5,298 C132.5,217.09,198.09,151.5,279,151.5 C359.91,151.5,425.5,217.09,425.5,298 Z"/></g><g id="MoonFace"><g><path fill="#fede10" fill-opacity="0.45" stroke="#000100" stroke-linejoin="bevel" d="M425.5,298 C425.5,378.91,359.91,444.5,279,444.5 C198.09,444.5,132.5,378.91,132.5,298"/><path fill="#000" fill-opacity="0.37" stroke="#000100" stroke-linejoin="bevel" d="M425.5,298 C425.5,217.09,359.91,151.5,279,151.5 C198.09,151.5,132.5,217.09,132.5,298"/><path fill="#fffffe" fill-rule="evenodd" stroke="#000100" stroke-linejoin="bevel" d="M243.7,256.399 C237.376,265.307,226.286,271.5,213.75,271.5 C193.177,271.5,176.5,254.823,176.5,234.25 C176.5,218.008,186.895,204.195,201.395,199.101 C196.64,205.772,194.096,213.214,194.096,221.25 C194.618,242.34,211.095,258.5,231.346,258.5 C236.292,258.387,240.122,257.66,243.7,256.399 Z"/><path fill="#fffffe" stroke="#000100" stroke-linejoin="bevel" d="M378.682,388.564 C378.682,388.564,369.307,384.482,369.307,384.482 C369.307,384.482,370.824,394.594,370.824,394.594 C370.824,394.594,362.825,388.225,362.825,388.225 C362.825,388.225,361.673,398.384,361.673,398.384 C361.673,398.384,355.596,390.162,355.596,390.162 C355.596,390.162,351.853,399.677,351.853,399.677 C351.853,399.677,348.111,390.162,348.111,390.162 C348.111,390.162,342.033,398.384,342.033,398.384 C342.033,398.384,340.881,388.225,340.881,388.225 C340.881,388.225,332.883,394.594,332.883,394.594 C332.883,394.594,334.399,384.482,334.399,384.482 C334.399,384.482,325.025,388.564,325.025,388.564 C325.025,388.564,329.106,379.19,329.106,379.19 C329.106,379.19,318.995,380.706,318.995,380.706 C318.995,380.706,325.364,372.708,325.364,372.708 C325.364,372.708,315.205,371.556,315.205,371.556 C315.205,371.556,323.427,365.478,323.427,365.478 C323.427,365.478,313.912,361.736,313.912,361.736 C313.912,361.736,323.427,357.993,323.427,357.993 C323.427,357.993,315.205,351.916,315.205,351.916 C315.205,351.916,325.364,350.763,325.364,350.763 C325.364,350.763,318.995,342.765,318.995,342.765 C318.995,342.765,329.106,344.281,329.106,344.281 C329.106,344.281,325.025,334.907,325.025,334.907 C325.025,334.907,334.399,338.989,334.399,338.989 C334.399,338.989,332.883,328.878,332.883,328.878 C332.883,328.878,340.881,335.246,340.881,335.246 C340.881,335.246,342.033,325.087,342.033,325.087 C342.033,325.087,348.111,333.309,348.111,333.309 C348.111,333.309,351.853,323.795,351.853,323.795 C351.853,323.795,355.596,333.309,355.596,333.309 C355.596,333.309,361.673,325.087,361.673,325.087 C361.673,325.087,362.825,335.246,362.825,335.246 C362.825,335.246,370.824,328.878,370.824,328.878 C370.824,328.878,369.307,338.989,369.307,338.989 C369.307,338.989,378.682,334.907,378.682,334.907 C378.682,334.907,374.6,344.281,374.6,344.281 C374.6,344.281,384.711,342.765,384.711,342.765 C384.711,342.765,378.342,350.763,378.342,350.763 C378.342,350.763,388.502,351.916,388.502,351.916 C388.502,351.916,380.28,357.993,380.28,357.993 C380.28,357.993,389.794,361.736,389.794,361.736 C389.794,361.736,380.28,365.478,380.28,365.478 C380.28,365.478,388.502,371.556,388.502,371.556 C388.502,371.556,378.342,372.708,378.342,372.708 C378.342,372.708,384.711,380.706,384.711,380.706 C384.711,380.706,374.6,379.19,374.6,379.19 C374.6,379.19,378.682,388.564,378.682,388.564 Z"/></g></g><g id="Clock24"><text fill="#000100" font-family="Helvetica" font-size="44" transform="matrix(1,0,0,1,254.572,194)" xml:space="preserve"><tspan>24</tspan></text><text fill="#000100" font-family="Helvetica" font-size="44" transform="matrix(1,0,0,1,394.385,313.114)" xml:space="preserve"><tspan>6</tspan></text><text fill="#000100" font-family="Helvetica" font-size="44" transform="matrix(1,0,0,1,266.797,430.55)" xml:space="preserve"><tspan>12</tspan></text><text fill="#000100" font-family="Helvetica" font-size="44" transform="matrix(1,0,0,1,140.385,313.05)" xml:space="preserve"><tspan>18</tspan></text><text fill="#000100" font-family="Helvetica" font-size="44" transform="matrix(1,0,0,1,323.385,207.114)" xml:space="preserve"><tspan>1</tspan></text></g><g id="Clock12x"><text fill="#000100" font-family="Gill Sans" font-size="18" transform="matrix(1,0,0,1.20712,78.792,297.232)" xml:space="preserve"><tspan>6pm</tspan></text></g><g id="en"><text fill="#000100" font-family="Helvetica" font-size="30" transform="matrix(0.63393,0.77339,-0.77339,0.63393,399.722,163.42)" xml:space="preserve"><tspan>Night</tspan></text><path fill="none" stroke="#00f" stroke-opacity="0.67" stroke-width="39" d="M458.5,298 C458.5,397.135,378.135,477.5,279,477.5"/><text fill="#000100" font-family="Helvetica" font-size="30" transform="matrix(0.757551,-0.652776,0.652776,0.757551,396.326,484.493)" xml:space="preserve"><tspan>Morning</tspan></text><path fill="none" stroke="#ca25fc" stroke-width="39" d="M119.5,298 C119.5,386.089,190.911,457.5,279,457.5"/><text fill="#000100" font-family="Helvetica" font-size="30" transform="matrix(0.796924,0.60408,-0.60408,0.796924,85.796,384.749)" xml:space="preserve"><tspan>Afternoon</tspan></text><path fill="none" stroke="#008080" stroke-opacity="0.87" stroke-width="38" d="M130.411,297.016 C130.411,248.192,156.964,203.442,199.25,181"/><text fill="#000100" font-family="Helvetica" font-size="30" transform="matrix(0.552922,-0.833233,0.833233,0.552922,96.09,273.374)" xml:space="preserve"><tspan>Evening</tspan></text><path fill="none" stroke="#000100" stroke-width="22" d="M199.25,176.653 C268.802,131.632,363.618,148.679,411.027,214.728 C428.275,238.758,437.5,267.164,437.5,296.245"/><text fill="#000100" font-family="Helvetica" font-size="30" transform="matrix(1,0,0,1,221.209,127.607)" xml:space="preserve"><tspan>Night</tspan></text><text fill="#000100" font-family="Helvetica" font-size="38" transform="matrix(0,1,-1,0,243.751,389.143)" xml:space="preserve"><tspan>Noon</tspan></text><text fill="#000100" font-family="Helvetica" font-size="28" transform="matrix(0,1,-1,0,276.562,191.068)" xml:space="preserve"><tspan>Midnight</tspan></text><path fill="#fffffe" stroke="#000100" d="M292.5,152.449 C292.5,157.533,288.489,161.655,283.541,161.655 C278.593,161.655,274.583,157.533,274.583,152.449 C274.583,147.365,278.593,143.243,283.541,143.243 C288.489,143.243,292.5,147.365,292.5,152.449 Z"/><path fill="#fffffe" stroke="#000100" d="M292.735,458.614 C292.735,466.409,286.586,472.728,279,472.728 C271.414,472.728,265.265,466.409,265.265,458.614 C265.265,450.819,271.414,444.5,279,444.5 C286.586,444.5,292.735,450.819,292.735,458.614 Z"/><text fill="#000100" font-family="Gill Sans" font-size="18" transform="matrix(1,0,0,1.20712,168.436,157.467)" xml:space="preserve"><tspan>9pm</tspan></text></g></svg>
